<svg width="23" height="22" viewBox="0 0 23 22" fill="none" xmlns="http://www.w3.org/2000/svg">
<path fill-rule="evenodd" clip-rule="evenodd" d="M11.2865 0C17.2944 0 22.1648 4.86782 22.1648 10.8726C22.1648 16.8773 17.2944 21.7451 11.2865 21.7451C5.27859 21.7451 0.408203 16.8773 0.408203 10.8726C0.408203 4.86782 5.27859 0 11.2865 0Z" fill="#2572D0"/>
<path d="M12.7006 21.6561V13.2579H15.0695L15.3835 10.3022H12.7006L12.7046 8.82269C12.7046 8.05176 12.7779 7.63888 13.8858 7.63888H15.3669V4.68262H12.9975C10.1514 4.68262 9.14987 6.1164 9.14987 8.52794V10.3024H7.37573V13.2584H9.14987V21.537C9.84103 21.6746 10.5556 21.7474 11.2872 21.7474C11.7598 21.7474 12.2319 21.7169 12.7006 21.6561Z" fill="white"/>
</svg>