<svg width="22" height="22" viewBox="0 0 22 22" fill="none" xmlns="http://www.w3.org/2000/svg">
<g clip-path="url(#clip0_1345_2025)">
<path d="M1.91016 2.97266H19.906V19.6537H1.91016V2.97266Z" fill="white"/>
<path d="M0.297607 1.8786C0.297607 1.04788 1.01507 0.374023 1.89971 0.374023H20.3762C21.2608 0.374023 21.9783 1.04788 21.9783 1.8786V19.8703C21.9783 20.701 21.2608 21.374 20.3762 21.374H1.89971C1.01507 21.374 0.297607 20.701 0.297607 19.8703V1.8786Z" fill="#2572D0"/>
<path d="M6.88625 17.9483V8.49411H3.64198V17.9483H6.88625ZM5.26498 7.20375C6.39604 7.20375 7.10044 6.47761 7.10044 5.57014C7.07954 4.64243 6.39604 3.93652 5.28675 3.93652C4.1766 3.93652 3.45129 4.64243 3.45129 5.57014C3.45129 6.47761 4.15483 7.20375 5.24409 7.20375H5.26498ZM8.68165 17.9483H11.9259V12.6688C11.9259 12.3863 11.9468 12.1038 12.033 11.9022C12.2672 11.3371 12.801 10.7527 13.6978 10.7527C14.8715 10.7527 15.3408 11.6197 15.3408 12.8906V17.9475H18.5851V12.5271C18.5851 9.62339 16.9847 8.27231 14.8506 8.27231C13.1005 8.27231 12.3325 9.21942 11.905 9.8646H11.9268V8.49411H8.68165C8.72432 9.38134 8.68165 17.9483 8.68165 17.9483Z" fill="white"/>
</g>
<defs>
<clipPath id="clip0_1345_2025">
<rect width="21.7241" height="21" fill="white" transform="translate(0.275879 0.374023)"/>
</clipPath>
</defs>
</svg>